<mxfile host="app.diagrams.net" modified="2023-11-10T03:52:59.399Z" agent="Mozilla/5.0 (Windows NT 10.0; Win64; x64; rv:109.0) Gecko/20100101 Firefox/119.0" version="22.1.0" etag="y7EziuJdXN63umB3J5zr" type="github">
  <diagram name="Page-1" id="jfK0PhouOpJ3rNUSfHy_">
    <mxGraphModel>
      <root>
        <mxCell id="0" />
        <mxCell id="1" parent="0" />
      </root>
    </mxGraphModel>
  </diagram>
</mxfile>
